<?xml version="1.0" encoding="UTF-8" standalone="no"?>
<!DOCTYPE svg PUBLIC "-//W3C//DTD SVG 1.1//EN" "http://www.w3.org/Graphics/SVG/1.1/DTD/svg11.dtd">
<!-- Created with Vectornator (http://vectornator.io/) -->
<svg height="100%" stroke-miterlimit="10" style="fill-rule:nonzero;clip-rule:evenodd;stroke-linecap:round;stroke-linejoin:round;" version="1.1" viewBox="0 0 360 360" width="100%" xml:space="preserve" xmlns="http://www.w3.org/2000/svg" xmlns:vectornator="http://vectornator.io" xmlns:xlink="http://www.w3.org/1999/xlink">
<defs/>
<clipPath id="ArtboardFrame">
<rect height="360" width="360" x="0" y="0"/>
</clipPath>
<g clip-path="url(#ArtboardFrame)" id="Layer-1" vectornator:layerName="Layer 1">
<g opacity="1" vectornator:layerName="Group 7">
<g opacity="1" vectornator:layerName="Group 5">
<path d="M61.1334 134.907C61.1334 121.041 72.3736 109.801 86.239 109.801C100.104 109.801 111.345 121.041 111.345 134.907C111.345 148.772 100.104 160.012 86.239 160.012C72.3736 160.012 61.1334 148.772 61.1334 134.907Z" fill="#8ed118" fill-rule="nonzero" opacity="1" stroke="none" vectornator:layerName="Oval 3"/>
<path d="M124.567 104.36C124.567 99.3204 128.652 95.2354 133.691 95.2354L133.691 95.2354C138.73 95.2354 142.815 99.3204 142.815 104.36L142.815 146.095C142.815 151.134 138.73 155.219 133.691 155.219L133.691 155.219C128.652 155.219 124.567 151.134 124.567 146.095L124.567 104.36Z" fill="#8ed118" fill-rule="nonzero" opacity="1" stroke="none" vectornator:layerName="Rectangle 13"/>
<path d="M127.791 139.559C131.635 136.301 137.393 136.776 140.651 140.62L140.651 140.62C143.909 144.464 143.434 150.221 139.59 153.48L91.3649 193.682C87.5209 196.94 81.7633 196.465 78.5051 192.621L78.5051 192.621C75.2469 188.777 75.7218 183.02 79.5658 179.762L127.791 139.559Z" fill="#8ed118" fill-rule="nonzero" opacity="1" stroke="none" vectornator:layerName="Rectangle 2"/>
<path d="M162.618 151.218C165.853 147.355 171.608 146.846 175.471 150.081L175.471 150.081C179.334 153.317 179.843 159.071 176.608 162.935L149.81 194.931C146.575 198.794 140.82 199.303 136.957 196.068L136.957 196.068C133.094 192.832 132.585 187.078 135.82 183.214L162.618 151.218Z" fill="#8ed118" fill-rule="nonzero" opacity="1" stroke="none" vectornator:layerName="Rectangle 10"/>
<path d="M146.004 180.538C150.716 182.324 153.088 187.592 151.303 192.304L151.303 192.304C149.517 197.016 144.25 199.388 139.537 197.602L100.51 182.813C95.7979 181.027 93.4256 175.759 95.2113 171.047L95.2113 171.047C96.997 166.335 102.265 163.963 106.977 165.749L146.004 180.538Z" fill="#8ed118" fill-rule="nonzero" opacity="1" stroke="none" vectornator:layerName="Rectangle 3"/>
<path d="M148.802 213.673C146.766 207.49 150.127 200.828 156.309 198.792L156.309 198.792C162.491 196.756 169.154 200.117 171.19 206.299L188.054 257.504C190.091 263.686 186.73 270.348 180.547 272.385L180.547 272.385C174.365 274.421 167.702 271.06 165.666 264.877L148.802 213.673Z" fill="#8ed118" fill-rule="nonzero" opacity="1" stroke="none" vectornator:layerName="Rectangle 4"/>
<g opacity="1" vectornator:layerName="Group 4">
<path d="M126.943 298.764C125.103 292.52 128.674 285.967 134.918 284.128L134.918 284.128C141.162 282.289 147.714 285.86 149.553 292.104L164.785 343.817C166.624 350.061 163.054 356.614 156.81 358.453L156.81 358.453C150.566 360.292 144.014 356.721 142.174 350.477L126.943 298.764Z" fill="#8ed118" fill-rule="nonzero" opacity="1" stroke="none" vectornator:layerName="Rectangle 7"/>
<path d="M99.0592 255.193C95.5971 249.681 97.2589 242.406 102.771 238.944L102.771 238.944C108.283 235.482 115.558 237.144 119.02 242.656L147.694 288.308C151.156 293.82 149.494 301.095 143.982 304.557L143.982 304.557C138.47 308.019 131.195 306.357 127.733 300.845L99.0592 255.193Z" fill="#8ed118" fill-rule="nonzero" opacity="1" stroke="none" vectornator:layerName="Rectangle 11"/>
</g>
<path d="M75.443 194.229C73.0898 187.566 76.5834 180.257 83.2462 177.904L83.2462 177.904C89.909 175.551 104.242 166.412 106.595 173.075L123.257 185.319L136.416 232.521L119.061 240.891C121.415 247.554 117.921 254.863 111.258 257.216L111.258 257.216C104.596 259.569 99.6055 258.01 97.2523 251.347L75.443 194.229Z" fill="#8ed118" fill-rule="nonzero" opacity="1" stroke="none" vectornator:layerName="Rectangle 8"/>
<path d="M151.132 201.616C155.753 197.031 163.215 197.062 167.799 201.683L167.799 201.683C172.383 206.304 172.353 213.766 167.732 218.35L121.575 264.128C116.954 268.712 109.492 268.682 104.908 264.061L104.908 264.061C100.324 259.44 100.354 251.978 104.975 247.394L151.132 201.616Z" fill="#8ed118" fill-rule="nonzero" opacity="1" stroke="none" vectornator:layerName="Rectangle 1"/>
</g>
<g opacity="1" vectornator:layerName="Group 6">
<path d="M100.171 25.1056C100.171 11.2402 111.411 0 125.276 0C139.142-3.38134e-14 150.382 11.2402 150.382 25.1056C150.382 38.971 139.142 50.2112 125.276 50.2112C111.411 50.2112 100.171 38.971 100.171 25.1056Z" fill="#15b4c9" fill-rule="nonzero" opacity="1" stroke="none" vectornator:layerName="Oval 2"/>
<g opacity="1" vectornator:layerName="Group 3">
<path d="M142.144 56.8149C146.727 54.7185 152.141 56.7338 154.237 61.3161L154.237 61.3161C156.334 65.8985 154.318 71.3126 149.736 73.409L111.783 90.7721C107.201 92.8685 101.787 90.8532 99.6905 86.2709L99.6905 86.2709C97.5941 81.6886 99.6093 76.2744 104.192 74.178L142.144 56.8149Z" fill="#15b4c9" fill-rule="nonzero" opacity="1" stroke="none" vectornator:layerName="Rectangle 14"/>
<path d="M155.867 16.5882C157.708 11.8973 163.003 9.58677 167.693 11.4275L167.693 11.4275C172.384 13.2683 174.695 18.5632 172.854 23.2541L154.461 68.3935C152.62 73.0843 147.325 75.3948 142.634 73.5541L142.634 73.5541C137.943 71.7134 135.633 66.4184 137.473 61.7276L155.867 16.5882Z" fill="#15b4c9" fill-rule="nonzero" opacity="1" stroke="none" vectornator:layerName="Rectangle 9"/>
</g>
<g opacity="1" vectornator:layerName="Group 2">
<path d="M160.591 65.3042C164.243 61.8326 170.018 61.9792 173.49 65.6316L173.49 65.6316C176.962 69.2841 176.815 75.0593 173.162 78.5309L142.912 107.284C139.259 110.756 133.484 110.609 130.012 106.957L130.012 106.957C126.541 103.304 126.687 97.5292 130.34 94.0576L160.591 65.3042Z" fill="#15b4c9" fill-rule="nonzero" opacity="1" stroke="none" vectornator:layerName="Rectangle 14"/>
<path d="M160.497 22.8013C160.714 17.7669 164.97 13.8612 170.005 14.0778L170.005 14.0778C175.039 14.2943 178.945 18.5511 178.728 23.5856L176.001 72.2523C175.784 77.2868 171.528 81.1924 166.493 80.9759L166.493 80.9759C161.459 80.7593 157.553 76.5025 157.77 71.4681L160.497 22.8013Z" fill="#15b4c9" fill-rule="nonzero" opacity="1" stroke="none" vectornator:layerName="Rectangle 9"/>
</g>
<path d="M192.351 85.1796C193.733 78.819 200.01 74.7833 206.37 76.1656L206.37 76.1656C212.731 77.5479 216.767 83.8247 215.384 90.1853L203.936 142.866C202.554 149.227 196.277 153.262 189.916 151.88L189.916 151.88C183.556 150.498 179.52 144.221 180.902 137.86L192.351 85.1796Z" fill="#15b4c9" fill-rule="nonzero" opacity="1" stroke="none" vectornator:layerName="Rectangle 5"/>
<path d="M222.363 91.2096C218.776 86.1897 219.937 79.2122 224.957 75.6247L224.957 75.6247C229.977 72.0372 236.954 73.1983 240.542 78.2182L264.668 109.846C268.256 114.866 267.094 121.843 262.075 125.431L262.075 125.431C257.055 129.018 250.077 127.857 246.49 122.837L222.363 91.2096Z" fill="#15b4c9" fill-rule="nonzero" opacity="1" stroke="none" vectornator:layerName="Rectangle 18"/>
<path d="M213.841 48.2149C217.058 42.9502 223.934 41.2905 229.199 44.5078L229.199 44.5078C234.463 47.7251 236.123 54.6012 232.906 59.8659L213.337 92.1936C210.12 97.4583 203.244 99.1181 197.979 95.9007L197.979 95.9007C192.715 92.6834 191.055 85.8074 194.272 80.5426L213.841 48.2149Z" fill="#15b4c9" fill-rule="nonzero" opacity="1" stroke="none" vectornator:layerName="Rectangle 16"/>
<path d="M229.482 23.7862C230.286 17.6689 235.897 13.3616 242.014 14.1657L242.014 14.1657C248.131 14.9698 252.439 20.5807 251.635 26.6981L241.778 85.5184C240.974 91.6357 235.363 95.943 229.245 95.1389L229.245 95.1389C223.128 94.3348 218.821 88.7238 219.625 82.6065L229.482 23.7862Z" fill="#15b4c9" fill-rule="nonzero" opacity="1" stroke="none" vectornator:layerName="Rectangle 15"/>
<path d="M166.956 43.5702C160.232 42.7335 154.81 24.4647 155.647 17.7407L155.647 17.7407C156.484 11.0166 162.613 6.244 169.337 7.0807L240.976 13.7217C247.7 14.5584 252.473 20.6876 251.636 27.4117L251.636 27.4117C250.799 34.1358 245.319 51.0479 238.595 50.2112L166.956 43.5702Z" fill="#15b4c9" fill-rule="nonzero" opacity="1" stroke="none" vectornator:layerName="Rectangle 6"/>
</g>
<path d="M180.631 152.151C180.631 152.151 197.381 154.958 208.839 153.538C220.298 152.117 266.751 125.339 266.751 125.339L298.867 66.3566L298.867 378.04L157.585 378.04L192.631 250.804L180.631 152.151Z" fill="#959595" fill-rule="nonzero" opacity="1" stroke="none" vectornator:layerName="Rectangle 12"/>
</g>
</g>
</svg>
